# xmcd CD database file
#
# Track frame offsets:
#	150
#	20311
#	36038
#	62824
#	98855
#	113458
#	136065
#	157087
#	180673
#	210277
#	234823
#
# Disc length: 3462 seconds
#
# Revision: 1
# Processed by: cddbd v1.5.2PL0 Copyright (c) Steve Scherf et al.
# Submitted via: CDex 1.81
#
DISCID=7e0d840b
DTITLE=Various Artist - Jazz Club Augsburg - Jazzclub Sounds Volume 1 CD2
DYEAR=2012
DGENRE=Jazz
TTITLE0=Take the A-Train
TTITLE1=Ghost of possibility
TTITLE2=Balmain Rhapsody
TTITLE3=Elm
TTITLE4=The Boogy Woogy Bugle Boy from Company B
TTITLE5=Stay
TTITLE6=Kasperle im Land der Differenzialgleichungen
TTITLE7=Aftenkanon
TTITLE8=Walkin' Tip Toe
TTITLE9=Dicembre
TTITLE10=That's it
EXTD=YEAR: 2012
EXTT0=
EXTT1=
EXTT2=
EXTT3=
EXTT4=
EXTT5=
EXTT6=
EXTT7=
EXTT8=
EXTT9=
EXTT10=
PLAYORDER=
